<svg xmlns="http://www.w3.org/2000/svg" xmlns:xlink="http://www.w3.org/1999/xlink" width="918" zoomAndPan="magnify" viewBox="0 0 688.5 225" height="300" preserveAspectRatio="xMidYMid meet" version="1.0"><defs><g/><clipPath id="dbf07df79c"><path d="M 6.496094 74.964844 L 37.8125 74.964844 L 37.8125 106.363281 L 6.496094 106.363281 Z M 6.496094 74.964844 " clip-rule="nonzero"/></clipPath><clipPath id="5352cfba10"><path d="M 6.496094 106.449219 L 37.8125 106.449219 L 37.8125 137.847656 L 6.496094 137.847656 Z M 6.496094 106.449219 " clip-rule="nonzero"/></clipPath><clipPath id="5b4d247c53"><path d="M 40 84 L 64 84 L 64 129 L 40 129 Z M 40 84 " clip-rule="nonzero"/></clipPath><clipPath id="24c740cc89"><path d="M 18.773438 106.339844 L 40.976562 84.140625 L 63.179688 106.339844 L 40.976562 128.542969 Z M 18.773438 106.339844 " clip-rule="nonzero"/></clipPath><clipPath id="8ff2c185fe"><path d="M 40.976562 84.140625 L 18.773438 106.339844 L 40.976562 128.542969 L 63.179688 106.339844 Z M 40.976562 84.140625 " clip-rule="nonzero"/></clipPath></defs><g fill="#faf9f9" fill-opacity="1"><g transform="translate(68.162704, 131.10245)"><g><path d="M 35.09375 -23.21875 L 13.03125 -23.21875 L 13.03125 0 L 6.09375 0 L 6.09375 -52.5625 L 38.671875 -52.5625 L 38.671875 -46.859375 L 13.03125 -46.859375 L 13.03125 -28.875 L 35.09375 -28.875 Z M 35.09375 -23.21875 "/></g></g></g><g fill="#faf9f9" fill-opacity="1"><g transform="translate(109.031049, 131.10245)"><g><path d="M 23.9375 -33.0625 C 22.925781 -33.238281 21.832031 -33.328125 20.65625 -33.328125 C 16.269531 -33.328125 13.296875 -31.460938 11.734375 -27.734375 L 11.734375 0 L 5.046875 0 L 5.046875 -39.0625 L 11.546875 -39.0625 L 11.65625 -34.546875 C 13.851562 -38.035156 16.957031 -39.78125 20.96875 -39.78125 C 22.269531 -39.78125 23.257812 -39.613281 23.9375 -39.28125 Z M 23.9375 -33.0625 "/></g></g></g><g fill="#faf9f9" fill-opacity="1"><g transform="translate(134.050274, 131.10245)"><g><path d="M 29.171875 0 C 28.785156 -0.769531 28.472656 -2.140625 28.234375 -4.109375 C 25.128906 -0.890625 21.421875 0.71875 17.109375 0.71875 C 13.265625 0.71875 10.109375 -0.367188 7.640625 -2.546875 C 5.171875 -4.722656 3.9375 -7.484375 3.9375 -10.828125 C 3.9375 -14.898438 5.484375 -18.0625 8.578125 -20.3125 C 11.671875 -22.5625 16.019531 -23.6875 21.625 -23.6875 L 28.125 -23.6875 L 28.125 -26.75 C 28.125 -29.082031 27.425781 -30.941406 26.03125 -32.328125 C 24.632812 -33.710938 22.578125 -34.40625 19.859375 -34.40625 C 17.472656 -34.40625 15.472656 -33.800781 13.859375 -32.59375 C 12.242188 -31.394531 11.4375 -29.941406 11.4375 -28.234375 L 4.734375 -28.234375 C 4.734375 -30.179688 5.421875 -32.0625 6.796875 -33.875 C 8.179688 -35.695312 10.0625 -37.132812 12.4375 -38.1875 C 14.8125 -39.25 17.414062 -39.78125 20.25 -39.78125 C 24.75 -39.78125 28.273438 -38.65625 30.828125 -36.40625 C 33.378906 -34.15625 34.703125 -31.054688 34.796875 -27.109375 L 34.796875 -9.140625 C 34.796875 -5.546875 35.253906 -2.691406 36.171875 -0.578125 L 36.171875 0 Z M 18.09375 -5.09375 C 20.1875 -5.09375 22.171875 -5.632812 24.046875 -6.71875 C 25.921875 -7.800781 27.28125 -9.207031 28.125 -10.9375 L 28.125 -18.953125 L 22.890625 -18.953125 C 14.703125 -18.953125 10.609375 -16.554688 10.609375 -11.765625 C 10.609375 -9.671875 11.304688 -8.035156 12.703125 -6.859375 C 14.097656 -5.679688 15.894531 -5.09375 18.09375 -5.09375 Z M 18.09375 -5.09375 "/></g></g></g><g fill="#faf9f9" fill-opacity="1"><g transform="translate(174.268769, 131.10245)"><g><path d="M 20.71875 -4.734375 C 23.101562 -4.734375 25.1875 -5.453125 26.96875 -6.890625 C 28.75 -8.335938 29.734375 -10.144531 29.921875 -12.3125 L 36.25 -12.3125 C 36.125 -10.070312 35.351562 -7.941406 33.9375 -5.921875 C 32.519531 -3.898438 30.625 -2.285156 28.25 -1.078125 C 25.875 0.117188 23.363281 0.71875 20.71875 0.71875 C 15.40625 0.71875 11.175781 -1.050781 8.03125 -4.59375 C 4.894531 -8.144531 3.328125 -13.003906 3.328125 -19.171875 L 3.328125 -20.296875 C 3.328125 -24.097656 4.023438 -27.476562 5.421875 -30.4375 C 6.816406 -33.394531 8.816406 -35.691406 11.421875 -37.328125 C 14.035156 -38.960938 17.125 -39.78125 20.6875 -39.78125 C 25.0625 -39.78125 28.695312 -38.46875 31.59375 -35.84375 C 34.5 -33.226562 36.050781 -29.820312 36.25 -25.625 L 29.921875 -25.625 C 29.734375 -28.15625 28.78125 -30.234375 27.0625 -31.859375 C 25.34375 -33.484375 23.21875 -34.296875 20.6875 -34.296875 C 17.289062 -34.296875 14.660156 -33.070312 12.796875 -30.625 C 10.929688 -28.1875 10 -24.65625 10 -20.03125 L 10 -18.765625 C 10 -14.265625 10.925781 -10.800781 12.78125 -8.375 C 14.632812 -5.945312 17.28125 -4.734375 20.71875 -4.734375 Z M 20.71875 -4.734375 "/></g></g></g><g fill="#faf9f9" fill-opacity="1"><g transform="translate(212.970947, 131.10245)"><g><path d="M 14.109375 -48.515625 L 14.109375 -39.0625 L 21.40625 -39.0625 L 21.40625 -33.90625 L 14.109375 -33.90625 L 14.109375 -9.671875 C 14.109375 -8.109375 14.429688 -6.9375 15.078125 -6.15625 C 15.734375 -5.375 16.84375 -4.984375 18.40625 -4.984375 C 19.175781 -4.984375 20.238281 -5.128906 21.59375 -5.421875 L 21.59375 0 C 19.832031 0.476562 18.125 0.71875 16.46875 0.71875 C 13.476562 0.71875 11.222656 -0.179688 9.703125 -1.984375 C 8.191406 -3.785156 7.4375 -6.347656 7.4375 -9.671875 L 7.4375 -33.90625 L 0.328125 -33.90625 L 0.328125 -39.0625 L 7.4375 -39.0625 L 7.4375 -48.515625 Z M 14.109375 -48.515625 "/></g></g></g><g fill="#faf9f9" fill-opacity="1"><g transform="translate(237.123705, 131.10245)"><g><path d="M 12.3125 0 L 5.625 0 L 5.625 -39.0625 L 12.3125 -39.0625 Z M 5.09375 -49.421875 C 5.09375 -50.503906 5.421875 -51.414062 6.078125 -52.15625 C 6.742188 -52.90625 7.722656 -53.28125 9.015625 -53.28125 C 10.316406 -53.28125 11.304688 -52.90625 11.984375 -52.15625 C 12.660156 -51.414062 13 -50.503906 13 -49.421875 C 13 -48.335938 12.660156 -47.4375 11.984375 -46.71875 C 11.304688 -46 10.316406 -45.640625 9.015625 -45.640625 C 7.722656 -45.640625 6.742188 -46 6.078125 -46.71875 C 5.421875 -47.4375 5.09375 -48.335938 5.09375 -49.421875 Z M 5.09375 -49.421875 "/></g></g></g><g fill="#faf9f9" fill-opacity="1"><g transform="translate(255.066786, 131.10245)"><g><path d="M 3.28125 -19.890625 C 3.28125 -23.710938 4.03125 -27.148438 5.53125 -30.203125 C 7.039062 -33.265625 9.132812 -35.625 11.8125 -37.28125 C 14.5 -38.945312 17.566406 -39.78125 21.015625 -39.78125 C 26.328125 -39.78125 30.625 -37.9375 33.90625 -34.25 C 37.195312 -30.570312 38.84375 -25.675781 38.84375 -19.5625 L 38.84375 -19.09375 C 38.84375 -15.289062 38.113281 -11.878906 36.65625 -8.859375 C 35.207031 -5.835938 33.128906 -3.484375 30.421875 -1.796875 C 27.710938 -0.117188 24.597656 0.71875 21.078125 0.71875 C 15.785156 0.71875 11.492188 -1.117188 8.203125 -4.796875 C 4.921875 -8.484375 3.28125 -13.359375 3.28125 -19.421875 Z M 10 -19.09375 C 10 -14.757812 11.003906 -11.28125 13.015625 -8.65625 C 15.023438 -6.039062 17.710938 -4.734375 21.078125 -4.734375 C 24.472656 -4.734375 27.171875 -6.0625 29.171875 -8.71875 C 31.171875 -11.375 32.171875 -15.097656 32.171875 -19.890625 C 32.171875 -24.171875 31.148438 -27.640625 29.109375 -30.296875 C 27.078125 -32.960938 24.378906 -34.296875 21.015625 -34.296875 C 17.710938 -34.296875 15.050781 -32.984375 13.03125 -30.359375 C 11.007812 -27.734375 10 -23.976562 10 -19.09375 Z M 10 -19.09375 "/></g></g></g><g fill="#faf9f9" fill-opacity="1"><g transform="translate(297.234819, 131.10245)"><g><path d="M 11.375 -39.0625 L 11.59375 -34.15625 C 14.570312 -37.90625 18.46875 -39.78125 23.28125 -39.78125 C 31.539062 -39.78125 35.707031 -35.125 35.78125 -25.8125 L 35.78125 0 L 29.09375 0 L 29.09375 -25.84375 C 29.070312 -28.664062 28.425781 -30.75 27.15625 -32.09375 C 25.894531 -33.4375 23.929688 -34.109375 21.265625 -34.109375 C 19.097656 -34.109375 17.195312 -33.53125 15.5625 -32.375 C 13.925781 -31.226562 12.648438 -29.710938 11.734375 -27.828125 L 11.734375 0 L 5.046875 0 L 5.046875 -39.0625 Z M 11.375 -39.0625 "/></g></g></g><g fill="#faf9f9" fill-opacity="1"><g transform="translate(338.030958, 131.10245)"><g><path d="M 29.171875 0 C 28.785156 -0.769531 28.472656 -2.140625 28.234375 -4.109375 C 25.128906 -0.890625 21.421875 0.71875 17.109375 0.71875 C 13.265625 0.71875 10.109375 -0.367188 7.640625 -2.546875 C 5.171875 -4.722656 3.9375 -7.484375 3.9375 -10.828125 C 3.9375 -14.898438 5.484375 -18.0625 8.578125 -20.3125 C 11.671875 -22.5625 16.019531 -23.6875 21.625 -23.6875 L 28.125 -23.6875 L 28.125 -26.75 C 28.125 -29.082031 27.425781 -30.941406 26.03125 -32.328125 C 24.632812 -33.710938 22.578125 -34.40625 19.859375 -34.40625 C 17.472656 -34.40625 15.472656 -33.800781 13.859375 -32.59375 C 12.242188 -31.394531 11.4375 -29.941406 11.4375 -28.234375 L 4.734375 -28.234375 C 4.734375 -30.179688 5.421875 -32.0625 6.796875 -33.875 C 8.179688 -35.695312 10.0625 -37.132812 12.4375 -38.1875 C 14.8125 -39.25 17.414062 -39.78125 20.25 -39.78125 C 24.75 -39.78125 28.273438 -38.65625 30.828125 -36.40625 C 33.378906 -34.15625 34.703125 -31.054688 34.796875 -27.109375 L 34.796875 -9.140625 C 34.796875 -5.546875 35.253906 -2.691406 36.171875 -0.578125 L 36.171875 0 Z M 18.09375 -5.09375 C 20.1875 -5.09375 22.171875 -5.632812 24.046875 -6.71875 C 25.921875 -7.800781 27.28125 -9.207031 28.125 -10.9375 L 28.125 -18.953125 L 22.890625 -18.953125 C 14.703125 -18.953125 10.609375 -16.554688 10.609375 -11.765625 C 10.609375 -9.671875 11.304688 -8.035156 12.703125 -6.859375 C 14.097656 -5.679688 15.894531 -5.09375 18.09375 -5.09375 Z M 18.09375 -5.09375 "/></g></g></g><g fill="#faf9f9" fill-opacity="1"><g transform="translate(378.249453, 131.10245)"><g><path d="M 12.3125 0 L 5.625 0 L 5.625 -55.453125 L 12.3125 -55.453125 Z M 12.3125 0 "/></g></g></g><g fill="#faf9f9" fill-opacity="1"><g transform="translate(396.192522, 131.10245)"><g/></g></g><g fill="#faf9f9" fill-opacity="1"><g transform="translate(414.496642, 131.10245)"><g><path d="M 6.09375 0 L 6.09375 -52.5625 L 20.9375 -52.5625 C 25.507812 -52.5625 29.550781 -51.550781 33.0625 -49.53125 C 36.582031 -47.507812 39.296875 -44.632812 41.203125 -40.90625 C 43.117188 -37.175781 44.085938 -32.890625 44.109375 -28.046875 L 44.109375 -24.6875 C 44.109375 -19.726562 43.148438 -15.382812 41.234375 -11.65625 C 39.328125 -7.925781 36.597656 -5.0625 33.046875 -3.0625 C 29.503906 -1.070312 25.375 -0.0507812 20.65625 0 Z M 13.03125 -46.859375 L 13.03125 -5.671875 L 20.328125 -5.671875 C 25.671875 -5.671875 29.828125 -7.328125 32.796875 -10.640625 C 35.765625 -13.960938 37.25 -18.695312 37.25 -24.84375 L 37.25 -27.90625 C 37.25 -33.875 35.847656 -38.507812 33.046875 -41.8125 C 30.242188 -45.125 26.269531 -46.804688 21.125 -46.859375 Z M 13.03125 -46.859375 "/></g></g></g><g fill="#faf9f9" fill-opacity="1"><g transform="translate(462.982684, 131.10245)"><g><path d="M 21.265625 0.71875 C 15.972656 0.71875 11.664062 -1.019531 8.34375 -4.5 C 5.019531 -7.976562 3.359375 -12.628906 3.359375 -18.453125 L 3.359375 -19.671875 C 3.359375 -23.546875 4.097656 -27.003906 5.578125 -30.046875 C 7.054688 -33.097656 9.125 -35.484375 11.78125 -37.203125 C 14.445312 -38.921875 17.332031 -39.78125 20.4375 -39.78125 C 25.507812 -39.78125 29.453125 -38.109375 32.265625 -34.765625 C 35.085938 -31.421875 36.5 -26.628906 36.5 -20.390625 L 36.5 -17.625 L 10.03125 -17.625 C 10.132812 -13.769531 11.257812 -10.65625 13.40625 -8.28125 C 15.5625 -5.914062 18.300781 -4.734375 21.625 -4.734375 C 23.976562 -4.734375 25.972656 -5.210938 27.609375 -6.171875 C 29.253906 -7.140625 30.691406 -8.414062 31.921875 -10 L 36 -6.828125 C 32.71875 -1.796875 27.804688 0.71875 21.265625 0.71875 Z M 20.4375 -34.296875 C 17.738281 -34.296875 15.472656 -33.3125 13.640625 -31.34375 C 11.816406 -29.382812 10.6875 -26.640625 10.25 -23.109375 L 29.828125 -23.109375 L 29.828125 -23.609375 C 29.628906 -27.003906 28.710938 -29.632812 27.078125 -31.5 C 25.441406 -33.363281 23.226562 -34.296875 20.4375 -34.296875 Z M 20.4375 -34.296875 "/></g></g></g><g fill="#faf9f9" fill-opacity="1"><g transform="translate(502.154186, 131.10245)"><g><path d="M 11.34375 -39.0625 L 11.515625 -34.734375 C 14.378906 -38.097656 18.242188 -39.78125 23.109375 -39.78125 C 28.566406 -39.78125 32.285156 -37.6875 34.265625 -33.5 C 35.554688 -35.375 37.242188 -36.890625 39.328125 -38.046875 C 41.410156 -39.203125 43.875 -39.78125 46.71875 -39.78125 C 55.28125 -39.78125 59.632812 -35.242188 59.78125 -26.171875 L 59.78125 0 L 53.109375 0 L 53.109375 -25.78125 C 53.109375 -28.570312 52.46875 -30.65625 51.1875 -32.03125 C 49.914062 -33.414062 47.773438 -34.109375 44.765625 -34.109375 C 42.285156 -34.109375 40.226562 -33.367188 38.59375 -31.890625 C 36.957031 -30.410156 36.003906 -28.421875 35.734375 -25.921875 L 35.734375 0 L 29.03125 0 L 29.03125 -25.59375 C 29.03125 -31.269531 26.25 -34.109375 20.6875 -34.109375 C 16.300781 -34.109375 13.304688 -32.242188 11.703125 -28.515625 L 11.703125 0 L 5.015625 0 L 5.015625 -39.0625 Z M 11.34375 -39.0625 "/></g></g></g><g fill="#faf9f9" fill-opacity="1"><g transform="translate(566.958684, 131.10245)"><g><path d="M 29.171875 0 C 28.785156 -0.769531 28.472656 -2.140625 28.234375 -4.109375 C 25.128906 -0.890625 21.421875 0.71875 17.109375 0.71875 C 13.265625 0.71875 10.109375 -0.367188 7.640625 -2.546875 C 5.171875 -4.722656 3.9375 -7.484375 3.9375 -10.828125 C 3.9375 -14.898438 5.484375 -18.0625 8.578125 -20.3125 C 11.671875 -22.5625 16.019531 -23.6875 21.625 -23.6875 L 28.125 -23.6875 L 28.125 -26.75 C 28.125 -29.082031 27.425781 -30.941406 26.03125 -32.328125 C 24.632812 -33.710938 22.578125 -34.40625 19.859375 -34.40625 C 17.472656 -34.40625 15.472656 -33.800781 13.859375 -32.59375 C 12.242188 -31.394531 11.4375 -29.941406 11.4375 -28.234375 L 4.734375 -28.234375 C 4.734375 -30.179688 5.421875 -32.0625 6.796875 -33.875 C 8.179688 -35.695312 10.0625 -37.132812 12.4375 -38.1875 C 14.8125 -39.25 17.414062 -39.78125 20.25 -39.78125 C 24.75 -39.78125 28.273438 -38.65625 30.828125 -36.40625 C 33.378906 -34.15625 34.703125 -31.054688 34.796875 -27.109375 L 34.796875 -9.140625 C 34.796875 -5.546875 35.253906 -2.691406 36.171875 -0.578125 L 36.171875 0 Z M 18.09375 -5.09375 C 20.1875 -5.09375 22.171875 -5.632812 24.046875 -6.71875 C 25.921875 -7.800781 27.28125 -9.207031 28.125 -10.9375 L 28.125 -18.953125 L 22.890625 -18.953125 C 14.703125 -18.953125 10.609375 -16.554688 10.609375 -11.765625 C 10.609375 -9.671875 11.304688 -8.035156 12.703125 -6.859375 C 14.097656 -5.679688 15.894531 -5.09375 18.09375 -5.09375 Z M 18.09375 -5.09375 "/></g></g></g><g fill="#faf9f9" fill-opacity="1"><g transform="translate(607.177156, 131.10245)"><g><path d="M 11.375 -39.0625 L 11.59375 -34.15625 C 14.570312 -37.90625 18.46875 -39.78125 23.28125 -39.78125 C 31.539062 -39.78125 35.707031 -35.125 35.78125 -25.8125 L 35.78125 0 L 29.09375 0 L 29.09375 -25.84375 C 29.070312 -28.664062 28.425781 -30.75 27.15625 -32.09375 C 25.894531 -33.4375 23.929688 -34.109375 21.265625 -34.109375 C 19.097656 -34.109375 17.195312 -33.53125 15.5625 -32.375 C 13.925781 -31.226562 12.648438 -29.710938 11.734375 -27.828125 L 11.734375 0 L 5.046875 0 L 5.046875 -39.0625 Z M 11.375 -39.0625 "/></g></g></g><g fill="#faf9f9" fill-opacity="1"><g transform="translate(647.973272, 131.10245)"><g><path d="M 3.4375 -19.859375 C 3.4375 -25.847656 4.851562 -30.664062 7.6875 -34.3125 C 10.53125 -37.957031 14.25 -39.78125 18.84375 -39.78125 C 23.414062 -39.78125 27.039062 -38.21875 29.71875 -35.09375 L 29.71875 -55.453125 L 36.390625 -55.453125 L 36.390625 0 L 30.25 0 L 29.921875 -4.1875 C 27.253906 -0.914062 23.535156 0.71875 18.765625 0.71875 C 14.242188 0.71875 10.554688 -1.128906 7.703125 -4.828125 C 4.859375 -8.535156 3.4375 -13.375 3.4375 -19.34375 Z M 10.109375 -19.09375 C 10.109375 -14.664062 11.019531 -11.203125 12.84375 -8.703125 C 14.675781 -6.203125 17.207031 -4.953125 20.4375 -4.953125 C 24.664062 -4.953125 27.757812 -6.851562 29.71875 -10.65625 L 29.71875 -28.59375 C 27.71875 -32.269531 24.644531 -34.109375 20.5 -34.109375 C 17.226562 -34.109375 14.675781 -32.84375 12.84375 -30.3125 C 11.019531 -27.789062 10.109375 -24.050781 10.109375 -19.09375 Z M 10.109375 -19.09375 "/></g></g></g><g clip-path="url(#dbf07df79c)"><path fill="#faf9f9" d="M 37.894531 74.886719 L 6.417969 74.886719 L 6.417969 106.363281 Z M 37.894531 74.886719 " fill-opacity="1" fill-rule="nonzero"/></g><g clip-path="url(#5352cfba10)"><path fill="#faf9f9" d="M 37.894531 106.371094 L 6.417969 106.371094 L 6.417969 137.847656 Z M 37.894531 106.371094 " fill-opacity="1" fill-rule="nonzero"/></g><g clip-path="url(#5b4d247c53)"><g clip-path="url(#24c740cc89)"><g clip-path="url(#8ff2c185fe)"><path fill="#faf9f9" d="M 40.976562 128.542969 L 63.175781 106.339844 L 40.976562 84.140625 Z M 40.976562 128.542969 " fill-opacity="1" fill-rule="nonzero"/></g></g></g></svg>