<svg width="520" height="347" viewBox="0 0 520 347" fill="none" xmlns="http://www.w3.org/2000/svg">
<rect width="520" height="347" rx="22" fill="#3F3863"/>
<rect x="58" y="40" width="212" height="268" rx="16" fill="#1F096D"/>
<rect x="58.5" y="40.5" width="211" height="267" rx="15.5" stroke="#9C9999" stroke-opacity="0.09"/>
<rect x="104" y="211" width="33" height="59" fill="#D9D9D9"/>
<rect x="147" y="156" width="33" height="114" fill="#D9D9D9"/>
<rect x="190" y="129" width="33" height="141" fill="#D9D9D9"/>
<path d="M208.061 94.9393C207.475 94.3536 206.525 94.3536 205.939 94.9393L196.393 104.485C195.808 105.071 195.808 106.021 196.393 106.607C196.979 107.192 197.929 107.192 198.515 106.607L207 98.1213L215.485 106.607C216.071 107.192 217.021 107.192 217.607 106.607C218.192 106.021 218.192 105.071 217.607 104.485L208.061 94.9393ZM207 119L208.5 119L208.5 96L207 96L205.5 96L205.5 119L207 119Z" fill="white" fill-opacity="0.9"/>
<rect x="302" y="202" width="161" height="89" rx="16" fill="#5A6BAB"/>
<rect x="302" y="57" width="161" height="128" rx="16" fill="#1C153D"/>
<rect x="338" y="79" width="38.9062" height="36.3125" rx="4" fill="#5967E6"/>
<rect x="388.146" y="79" width="38.9062" height="36.3125" rx="4" fill="#5967E6"/>
<path fill-rule="evenodd" clip-rule="evenodd" d="M416.773 85.9167H399.289C397.91 85.9167 396.792 87.0346 396.792 88.4145V105.898C396.792 107.277 397.91 108.396 399.289 108.396H416.773C418.152 108.396 419.271 107.278 419.271 105.898V88.4145C419.271 87.0354 418.153 85.9167 416.773 85.9167ZM403.588 105.274H400.236V94.4501H403.588V105.274ZM401.896 93.0331C400.801 93.0331 399.914 92.1391 399.914 91.0359C399.914 89.9327 400.801 89.0387 401.896 89.0387C402.992 89.0387 403.878 89.9327 403.878 91.0359C403.878 92.1391 402.991 93.0331 401.896 93.0331ZM416.149 105.274H412.813V99.5927C412.813 98.0347 412.221 97.164 410.988 97.164C409.647 97.164 408.946 98.0701 408.946 99.5927V105.274H405.731V94.4501H408.946V95.9078C408.946 95.9078 409.913 94.119 412.21 94.119C414.507 94.119 416.149 95.5205 416.149 98.4203V105.274Z" fill="white"/>
<rect x="388.146" y="125.688" width="38.9062" height="36.3125" rx="4" fill="#5967E6"/>
<path opacity="0.4" d="M419.651 144.119C419.651 143.26 419.574 142.435 419.431 141.643H408.031V146.33H414.546C414.26 147.838 413.401 149.114 412.114 149.973V153.02H416.042C418.331 150.907 419.651 147.804 419.651 144.119Z" fill="white"/>
<path d="M408.031 155.948C411.299 155.948 414.039 154.87 416.042 153.021L412.113 149.974C411.035 150.7 409.659 151.14 408.03 151.14C404.883 151.14 402.209 149.017 401.252 146.156L398.903 147.963L397.225 149.281C399.217 153.231 403.299 155.95 408.03 155.95L408.031 155.948Z" fill="white"/>
<path opacity="0.4" d="M401.253 146.144C401.011 145.417 400.868 144.647 400.868 143.844C400.868 143.041 401.011 142.27 401.253 141.544V138.418H397.226C396.4 140.047 395.927 141.885 395.927 143.844C395.927 145.803 396.4 147.64 397.226 149.269H400.106L401.254 146.144H401.253Z" fill="white"/>
<path d="M408.031 136.56C409.814 136.56 411.399 137.176 412.664 138.364L416.13 134.898C414.028 132.94 411.299 131.74 408.031 131.74C403.299 131.74 399.217 134.458 397.226 138.418L401.253 141.544C402.21 138.683 404.884 136.56 408.031 136.56Z" fill="white"/>
<rect x="338" y="125.688" width="38.9062" height="36.3125" rx="4" fill="#5967E6"/>
<path d="M352.008 131.824C350.72 131.885 349.84 132.091 349.072 132.392C348.276 132.703 347.602 133.119 346.93 133.792C346.259 134.466 345.846 135.141 345.538 135.937C345.24 136.707 345.039 137.588 344.982 138.877C344.924 140.165 344.912 140.58 344.918 143.866C344.924 147.153 344.939 147.565 345.001 148.857C345.063 150.144 345.268 151.023 345.569 151.793C345.88 152.588 346.296 153.263 346.969 153.934C347.643 154.605 348.317 155.018 349.116 155.326C349.885 155.624 350.766 155.827 352.055 155.883C353.343 155.939 353.758 155.952 357.044 155.946C360.33 155.94 360.744 155.925 362.035 155.864C363.327 155.803 364.201 155.597 364.971 155.296C365.766 154.985 366.441 154.57 367.112 153.895C367.783 153.221 368.196 152.546 368.503 151.749C368.802 150.979 369.004 150.098 369.06 148.811C369.116 147.519 369.13 147.107 369.123 143.82C369.116 140.532 369.103 140.121 369.041 138.83C368.98 137.539 368.775 136.663 368.473 135.893C368.162 135.098 367.747 134.423 367.073 133.751C366.4 133.08 365.724 132.667 364.927 132.36C364.156 132.062 363.276 131.859 361.988 131.804C360.7 131.748 360.285 131.734 356.997 131.74C353.71 131.746 353.299 131.76 352.008 131.823M352.15 153.704C350.97 153.653 350.329 153.457 349.902 153.293C349.336 153.075 348.934 152.811 348.508 152.39C348.083 151.969 347.821 151.564 347.6 151C347.434 150.573 347.235 149.933 347.179 148.753C347.12 147.478 347.107 147.095 347.1 143.863C347.093 140.631 347.105 140.249 347.161 138.973C347.211 137.793 347.408 137.152 347.573 136.725C347.791 136.158 348.053 135.756 348.475 135.331C348.897 134.906 349.301 134.644 349.866 134.423C350.292 134.256 350.932 134.058 352.112 134.002C353.388 133.942 353.771 133.93 357.002 133.923C360.233 133.916 360.617 133.928 361.894 133.984C363.073 134.035 363.714 134.23 364.141 134.396C364.706 134.613 365.109 134.875 365.534 135.298C365.96 135.721 366.222 136.123 366.443 136.689C366.61 137.115 366.808 137.755 366.863 138.935C366.924 140.211 366.938 140.594 366.944 143.825C366.95 147.056 366.938 147.44 366.882 148.715C366.83 149.895 366.635 150.536 366.471 150.964C366.253 151.529 365.99 151.932 365.567 152.357C365.144 152.783 364.742 153.045 364.177 153.265C363.751 153.431 363.11 153.63 361.932 153.686C360.656 153.746 360.273 153.759 357.041 153.766C353.809 153.773 353.426 153.76 352.15 153.704ZM362.017 137.374C362.019 138.176 362.67 138.826 363.472 138.824C364.275 138.822 364.924 138.171 364.922 137.369C364.921 136.567 364.269 135.917 363.467 135.919C362.665 135.921 362.016 136.572 362.017 137.374ZM350.806 143.855C350.813 147.287 353.601 150.064 357.033 150.058C360.465 150.051 363.243 147.263 363.237 143.831C363.23 140.398 360.442 137.62 357.01 137.627C353.577 137.634 350.799 140.423 350.806 143.855ZM352.988 143.851C352.983 141.623 354.786 139.812 357.015 139.808C359.243 139.804 361.053 141.606 361.058 143.835C361.062 146.063 359.259 147.874 357.03 147.878C354.802 147.882 352.992 146.08 352.988 143.852" fill="white"/>
<path d="M357.885 85.0521C351.2 85.0521 345.781 90.4713 345.781 97.1563C345.781 102.833 349.689 107.596 354.961 108.904V100.855H352.465V97.1563H354.961V95.5628C354.961 91.4431 356.825 89.5332 360.871 89.5332C361.638 89.5332 362.961 89.6837 363.502 89.8341V93.187C363.216 93.1567 362.72 93.142 362.104 93.142C360.119 93.142 359.352 93.8942 359.352 95.8481V97.1563H363.305L362.626 100.855H359.352V109.171C365.345 108.448 369.99 103.344 369.99 97.1563C369.99 90.4713 364.57 85.0521 357.885 85.0521Z" fill="white"/>
<circle cx="348" cy="248" r="24" fill="#D9D9D9"/>
<circle cx="419" cy="249" r="22.5" fill="#29477B" stroke="#21366E" stroke-width="3"/>
<path d="M412.493 247.783C412.459 247.439 412.313 247.172 412.054 246.982C411.795 246.791 411.445 246.696 411.001 246.696C410.7 246.696 410.446 246.739 410.239 246.824C410.031 246.906 409.872 247.021 409.761 247.169C409.653 247.317 409.599 247.484 409.599 247.672C409.594 247.828 409.626 247.964 409.697 248.081C409.771 248.197 409.872 248.298 410 248.384C410.128 248.466 410.276 248.538 410.443 248.601C410.611 248.661 410.79 248.712 410.98 248.754L411.764 248.942C412.145 249.027 412.494 249.141 412.812 249.283C413.131 249.425 413.406 249.599 413.639 249.807C413.872 250.014 414.053 250.259 414.18 250.54C414.311 250.821 414.378 251.143 414.381 251.507C414.378 252.041 414.241 252.504 413.972 252.896C413.705 253.286 413.318 253.588 412.812 253.804C412.31 254.017 411.703 254.124 410.993 254.124C410.288 254.124 409.675 254.016 409.152 253.8C408.632 253.584 408.226 253.264 407.933 252.841C407.643 252.415 407.491 251.888 407.477 251.26H409.263C409.283 251.553 409.366 251.797 409.514 251.993C409.665 252.186 409.865 252.332 410.115 252.432C410.368 252.528 410.653 252.577 410.972 252.577C411.284 252.577 411.555 252.531 411.786 252.44C412.018 252.349 412.199 252.223 412.327 252.061C412.455 251.899 412.518 251.713 412.518 251.503C412.518 251.307 412.46 251.142 412.344 251.009C412.23 250.875 412.063 250.761 411.841 250.668C411.622 250.574 411.354 250.489 411.036 250.412L410.085 250.173C409.349 249.994 408.768 249.714 408.342 249.334C407.916 248.953 407.705 248.44 407.707 247.795C407.705 247.267 407.845 246.805 408.129 246.411C408.416 246.016 408.81 245.707 409.31 245.486C409.81 245.264 410.378 245.153 411.014 245.153C411.662 245.153 412.227 245.264 412.71 245.486C413.196 245.707 413.574 246.016 413.844 246.411C414.114 246.805 414.253 247.263 414.261 247.783H412.493ZM418.916 250.966H420.484L421.272 251.98L422.048 252.884L423.51 254.716H421.788L420.782 253.48L420.267 252.747L418.916 250.966ZM423.642 249.636C423.642 250.588 423.461 251.398 423.1 252.065C422.743 252.733 422.254 253.243 421.635 253.595C421.018 253.945 420.325 254.119 419.555 254.119C418.779 254.119 418.083 253.943 417.467 253.591C416.85 253.239 416.363 252.729 416.005 252.061C415.647 251.393 415.468 250.585 415.468 249.636C415.468 248.685 415.647 247.875 416.005 247.207C416.363 246.54 416.85 246.031 417.467 245.682C418.083 245.33 418.779 245.153 419.555 245.153C420.325 245.153 421.018 245.33 421.635 245.682C422.254 246.031 422.743 246.54 423.1 247.207C423.461 247.875 423.642 248.685 423.642 249.636ZM421.771 249.636C421.771 249.02 421.679 248.5 421.494 248.077C421.312 247.653 421.055 247.332 420.723 247.114C420.39 246.895 420.001 246.786 419.555 246.786C419.109 246.786 418.72 246.895 418.387 247.114C418.055 247.332 417.797 247.653 417.612 248.077C417.43 248.5 417.339 249.02 417.339 249.636C417.339 250.253 417.43 250.773 417.612 251.196C417.797 251.619 418.055 251.94 418.387 252.159C418.72 252.378 419.109 252.487 419.555 252.487C420.001 252.487 420.39 252.378 420.723 252.159C421.055 251.94 421.312 251.619 421.494 251.196C421.679 250.773 421.771 250.253 421.771 249.636ZM425.009 254V245.273H426.854V252.479H430.595V254H425.009Z" fill="white"/>
<path d="M333.759 253V244.273H335.604V251.479H339.345V253H333.759ZM343.516 253.128C342.843 253.128 342.263 252.991 341.777 252.719C341.294 252.443 340.922 252.054 340.661 251.551C340.4 251.045 340.269 250.447 340.269 249.757C340.269 249.084 340.4 248.493 340.661 247.984C340.922 247.476 341.29 247.08 341.765 246.795C342.242 246.511 342.801 246.369 343.444 246.369C343.875 246.369 344.277 246.439 344.65 246.578C345.025 246.714 345.351 246.92 345.63 247.196C345.911 247.472 346.13 247.818 346.286 248.236C346.442 248.651 346.52 249.136 346.52 249.693V250.192H340.993V249.067H344.811C344.811 248.805 344.755 248.574 344.641 248.372C344.527 248.17 344.37 248.013 344.168 247.899C343.969 247.783 343.738 247.724 343.473 247.724C343.198 247.724 342.953 247.788 342.74 247.916C342.53 248.041 342.365 248.21 342.246 248.423C342.127 248.634 342.066 248.868 342.063 249.126V250.196C342.063 250.52 342.123 250.8 342.242 251.036C342.364 251.271 342.536 251.453 342.757 251.581C342.979 251.709 343.242 251.773 343.546 251.773C343.748 251.773 343.932 251.744 344.1 251.688C344.267 251.631 344.411 251.545 344.53 251.432C344.65 251.318 344.74 251.179 344.803 251.014L346.482 251.125C346.397 251.528 346.222 251.881 345.958 252.182C345.696 252.48 345.358 252.713 344.944 252.881C344.532 253.045 344.056 253.128 343.516 253.128ZM349.571 253.124C349.154 253.124 348.782 253.051 348.455 252.906C348.128 252.759 347.87 252.541 347.679 252.254C347.492 251.964 347.398 251.604 347.398 251.172C347.398 250.808 347.465 250.503 347.598 250.256C347.732 250.009 347.914 249.81 348.144 249.659C348.374 249.509 348.635 249.395 348.928 249.318C349.223 249.241 349.533 249.188 349.857 249.156C350.238 249.116 350.544 249.08 350.777 249.045C351.01 249.009 351.179 248.955 351.284 248.884C351.39 248.812 351.442 248.707 351.442 248.568V248.543C351.442 248.273 351.357 248.064 351.186 247.916C351.019 247.768 350.78 247.695 350.471 247.695C350.144 247.695 349.884 247.767 349.691 247.912C349.498 248.054 349.37 248.233 349.307 248.449L347.628 248.312C347.713 247.915 347.881 247.571 348.131 247.281C348.381 246.989 348.703 246.764 349.098 246.608C349.496 246.449 349.956 246.369 350.479 246.369C350.843 246.369 351.191 246.412 351.523 246.497C351.858 246.582 352.155 246.714 352.414 246.893C352.675 247.072 352.881 247.303 353.032 247.584C353.182 247.862 353.257 248.196 353.257 248.585V253H351.536V252.092H351.485C351.38 252.297 351.239 252.477 351.063 252.634C350.887 252.787 350.675 252.908 350.428 252.996C350.181 253.081 349.895 253.124 349.571 253.124ZM350.091 251.871C350.358 251.871 350.594 251.818 350.799 251.713C351.003 251.605 351.164 251.46 351.28 251.278C351.397 251.097 351.455 250.891 351.455 250.661V249.966C351.398 250.003 351.32 250.037 351.221 250.068C351.124 250.097 351.015 250.124 350.892 250.149C350.77 250.172 350.648 250.193 350.526 250.213C350.404 250.23 350.293 250.246 350.194 250.26C349.98 250.291 349.794 250.341 349.635 250.409C349.476 250.477 349.353 250.57 349.265 250.686C349.176 250.8 349.132 250.942 349.132 251.112C349.132 251.359 349.222 251.548 349.401 251.679C349.583 251.807 349.813 251.871 350.091 251.871ZM357.078 253.107C356.581 253.107 356.13 252.979 355.727 252.723C355.326 252.464 355.008 252.085 354.772 251.585C354.539 251.082 354.423 250.466 354.423 249.736C354.423 248.986 354.544 248.362 354.785 247.865C355.027 247.365 355.348 246.991 355.748 246.744C356.152 246.494 356.593 246.369 357.074 246.369C357.44 246.369 357.745 246.432 357.99 246.557C358.237 246.679 358.436 246.832 358.586 247.017C358.74 247.199 358.856 247.378 358.936 247.554H358.991V244.273H360.802V253H359.012V251.952H358.936C358.85 252.134 358.73 252.314 358.574 252.493C358.42 252.669 358.22 252.815 357.973 252.932C357.728 253.048 357.43 253.107 357.078 253.107ZM357.653 251.662C357.946 251.662 358.193 251.582 358.395 251.423C358.599 251.261 358.755 251.036 358.863 250.746C358.974 250.456 359.029 250.116 359.029 249.727C359.029 249.338 358.975 249 358.868 248.713C358.76 248.426 358.603 248.205 358.399 248.048C358.194 247.892 357.946 247.814 357.653 247.814C357.355 247.814 357.103 247.895 356.899 248.057C356.694 248.219 356.539 248.443 356.434 248.73C356.329 249.017 356.277 249.349 356.277 249.727C356.277 250.108 356.329 250.445 356.434 250.737C356.542 251.027 356.697 251.254 356.899 251.419C357.103 251.581 357.355 251.662 357.653 251.662Z" fill="black"/>
<path d="M372 248.5H395" stroke="white"/>
</svg>
